<svg width="1440" height="720" xmlns="http://www.w3.org/2000/svg">
 <g>
  <title>Layer 1</title>
  <path stroke="null" id="svg_1" d="m0,456.000548l60,-16c60,-16 180,-48 300,-90.7c120,-42.3 240,-96.3 360,-90.6c120,5.3 240,69.3 360,85.3c120,16 240,-16 300,-32l60,-16l0,-96l-60,0c-60,0 -180,0 -300,0c-120,0 -240,0 -360,0c-120,0 -240,0 -360,0c-120,0 -240,0 -300,0l-60,0l0,256z" fill="#d5e1ff"/>
  <rect id="svg_2" height="201" width="1440" y="0" x="0" stroke-opacity="null" stroke-width="null" stroke="null" fill="#d5e1ff"/>
 </g>
</svg>